<?xml version="1.0" encoding="UTF-8"?>
<!-- Generator: Adobe Illustrator 16.0.4, SVG Export Plug-In . SVG Version: 6.00 Build 0)  -->
<!DOCTYPE svg PUBLIC "-//W3C//DTD SVG 1.1//EN" "http://www.w3.org/Graphics/SVG/1.1/DTD/svg11.dtd" [
	<!ENTITY ns_extend "http://ns.adobe.com/Extensibility/1.0/">
	<!ENTITY ns_ai "http://ns.adobe.com/AdobeIllustrator/10.0/">
	<!ENTITY ns_graphs "http://ns.adobe.com/Graphs/1.0/">
	<!ENTITY ns_vars "http://ns.adobe.com/Variables/1.0/">
	<!ENTITY ns_imrep "http://ns.adobe.com/ImageReplacement/1.0/">
	<!ENTITY ns_sfw "http://ns.adobe.com/SaveForWeb/1.0/">
	<!ENTITY ns_custom "http://ns.adobe.com/GenericCustomNamespace/1.0/">
	<!ENTITY ns_adobe_xpath "http://ns.adobe.com/XPath/1.0/">
]>
<svg version="1.1" id="Layer_1" xmlns:x="http://ns.adobe.com/Extensibility/1.0/" xmlns:i="http://ns.adobe.com/AdobeIllustrator/10.0/" xmlns:graph="http://ns.adobe.com/Graphs/1.0/" xmlns="http://www.w3.org/2000/svg" xmlns:xlink="http://www.w3.org/1999/xlink" x="0px" y="0px" width="275px" height="62px" viewBox="0 0 275 62" enable-background="new 0 0 275 62" xml:space="preserve">
<metadata>
	<sfw xmlns="http://ns.adobe.com/SaveForWeb/1.0/">
		<slices/>
		<sliceSourceBounds y="6.555" x="-60.998" width="220.996" height="74.278" bottomLeftOrigin="true"/>
	</sfw>
</metadata>
<g>
	
		<linearGradient id="SVGID_1_" gradientUnits="userSpaceOnUse" x1="313.3809" y1="-340.0493" x2="313.3809" y2="-287.9502" gradientTransform="matrix(1 0 0 -1 -256 -283)">
		<stop offset="0" style="stop-color:#D14427"/>
		<stop offset="1" style="stop-color:#E55225"/>
	</linearGradient>
	<circle fill="url(#SVGID_1_)" cx="57.381" cy="31" r="26.05"/>
	
		<linearGradient id="SVGID_2_" gradientUnits="userSpaceOnUse" x1="313.377" y1="-344.3325" x2="313.377" y2="-283.667" gradientTransform="matrix(1 0 0 -1 -256 -283)">
		<stop offset="0" style="stop-color:#D14427"/>
		<stop offset="1" style="stop-color:#E55225"/>
	</linearGradient>
	
		<ellipse fill="none" stroke="url(#SVGID_2_)" stroke-width="2.25" stroke-miterlimit="10" cx="57.377" cy="31" rx="29.25" ry="29.208"/>
	<g>
		<g>
			<path fill="#4C4C4C" d="M105.809,21.05h-6.551l-0.142,0.025v18.268h6.692c6.346,0,9.185-4.69,9.185-9.34     C114.993,25.691,112.12,21.05,105.809,21.05z M105.809,23.494c4.604,0,6.666,3.256,6.666,6.485c0,3.158-1.745,6.843-6.666,6.843     h-4.174V23.494H105.809z"/>
			<path fill="#4C4C4C" d="M127.088,33.32c0,2.287-1.583,3.968-3.763,3.988c-2.323,0-3.711-1.427-3.711-3.812v-7.129h-2.39v7.156     c0,3.662,2.225,6.023,5.665,6.023h0.002c1.777-0.023,3.22-0.695,4.294-1.986l0.091,1.779h2.204V26.368h-2.39L127.088,33.32     L127.088,33.32z"/>
			<path fill="#4C4C4C" d="M143.46,37.381l-1.489-1.49l-0.104,0.104c-0.811,0.836-1.95,1.291-3.209,1.291     c-2.182,0-4.382-1.367-4.382-4.431c0-2.61,1.812-4.433,4.406-4.433c1.164,0,2.297,0.452,3.11,1.245l0.103,0.098l1.533-1.591     l-0.103-0.098c-1.312-1.289-2.894-1.943-4.697-1.943c-4.052,0-6.77,2.7-6.77,6.722c0,4.641,3.399,6.717,6.77,6.717     c1.879,0,3.504-0.67,4.828-1.993l0.103-0.101L143.46,37.381L143.46,37.381z"/>
			<polygon fill="#4C4C4C" points="155.725,26.698 155.725,26.368 152.9,26.368 147.889,31.506 147.889,21.077 145.521,21.077      145.521,39.346 147.889,39.346 147.889,33.561 153.672,39.346 156.441,39.346 156.441,38.988 149.926,32.497    "/>
			<path fill="#4C4C4C" d="M165.029,21.05h-6.549l-0.145,0.025v18.268h6.688c6.349,0,9.188-4.69,9.188-9.34     C174.217,25.691,171.342,21.05,165.029,21.05z M165.029,23.494c4.605,0,6.668,3.256,6.668,6.485c0,3.158-1.745,6.843-6.668,6.843     h-4.172V23.494H165.029z"/>
			<path fill="#4C4C4C" d="M186.309,33.32c0,2.287-1.582,3.968-3.766,3.988c-2.32,0-3.71-1.427-3.71-3.812v-7.129h-2.39v7.156     c0,3.662,2.226,6.023,5.664,6.023h0.002c1.777-0.023,3.219-0.695,4.293-1.986l0.093,1.779h2.205V26.368h-2.392V33.32     L186.309,33.32L186.309,33.32z"/>
			<path fill="#4C4C4C" d="M202.682,37.381l-1.49-1.49l-0.1,0.104c-0.812,0.836-1.951,1.291-3.211,1.291     c-2.181,0-4.382-1.367-4.382-4.431c0-2.61,1.812-4.433,4.403-4.433c1.164,0,2.298,0.452,3.113,1.245l0.103,0.098l1.532-1.591     l-0.104-0.098c-1.312-1.289-2.891-1.943-4.696-1.943c-4.052,0-6.771,2.7-6.771,6.722c0,4.641,3.403,6.717,6.771,6.717     c1.879,0,3.504-0.67,4.828-1.993l0.104-0.101L202.682,37.381L202.682,37.381z"/>
			<polygon fill="#4C4C4C" points="214.945,26.698 214.945,26.368 212.122,26.368 207.109,31.506 207.109,21.077 204.744,21.077      204.744,39.346 207.109,39.346 207.109,33.561 212.895,39.346 215.665,39.346 215.665,38.988 209.146,32.497    "/>
			<path fill="#4C4C4C" d="M224.703,31.482h5.598v4.057c-1.349,1.143-2.994,1.747-4.764,1.747c-4.869,0-7.049-3.478-7.049-6.922     c0-3.508,2.189-7.282,7-7.282c1.896,0,3.895,0.792,5.217,2.065l0.107,0.106l1.471-1.706l-0.094-0.092     c-1.793-1.767-4.172-2.739-6.703-2.739c-2.76,0-5.123,0.907-6.83,2.622c-1.73,1.739-2.678,4.235-2.662,7.025     c0,4.297,2.492,9.313,9.518,9.313c2.801,0,5.113-1.015,7.066-3.104l0.037-0.039v-7.314h-7.912V31.482L224.703,31.482z"/>
			<path fill="#4C4C4C" d="M241.254,26.084c-3.893,0-6.719,2.859-6.719,6.797c0,3.878,2.826,6.692,6.719,6.692     c3.906,0,6.744-2.814,6.744-6.692C247.998,28.878,245.223,26.084,241.254,26.084z M241.254,37.309     c-2.508,0-4.328-1.856-4.328-4.428c0-2.699,1.791-4.583,4.354-4.583c2.522,0,4.353,1.927,4.353,4.582     C245.605,35.49,243.805,37.309,241.254,37.309z"/>
		</g>
	</g>
	<g>
		<g>
			<g>
				<g>
					<g>
						<g>
							<g>
								<g>
									<g>
										<g>
											<defs>
												<path id="SVGID_3_" d="M83.663,30.928c0,14.494-11.79,26.283-26.285,26.283c-14.492,0-26.28-11.791-26.28-26.283              c0-14.491,11.79-26.28,26.28-26.28C71.873,4.647,83.663,16.437,83.663,30.928z"/>
											</defs>
											<clipPath id="SVGID_4_">
												<use xlink:href="#SVGID_3_" overflow="visible"/>
											</clipPath>
											<g clip-path="url(#SVGID_4_)">
												<path fill="#D5D7D8" d="M68.054,69.801c-0.917-4.221-6.244-13.771-8.265-17.809c-2.019-4.037-4.042-9.73-3.122-13.402              c0.167-0.668-1.749-5.759-1.198-6.119c4.285-2.795,5.415,0.307,7.13-0.947c0.885-0.647,2.083,0.531,2.39-0.541              c1.098-3.854-1.531-10.571-4.465-13.508c-0.959-0.957-2.43-1.558-4.089-1.877c-0.638-0.872-1.668-1.712-3.125-2.484              c-1.624-0.864-5.154-2.005-6.984-2.309c-1.269-0.209-1.555,0.146-2.098,0.234c0.505,0.045,2.902,1.229,3.37,1.299              c-0.467,0.315-1.837-0.015-2.712,0.377c-0.44,0.2-0.77,0.957-0.767,1.314c2.5-0.253,6.402-0.008,8.708,1.018              c-1.834,0.209-4.624,0.442-5.823,1.072c-3.487,1.838-5.027,6.129-4.109,11.27c0.919,5.13,4.959,23.856,6.245,30.109              c1.286,6.246-2.754,10.281-5.324,11.383l2.754,0.186l-0.917,2.021c3.302,0.368,6.974-0.73,6.974-0.73              c-0.733,2.021-5.692,2.756-5.692,2.756s2.39,0.729,6.243-0.737c3.857-1.467,6.244-2.388,6.244-2.388l1.835,4.771              l3.491-3.486l1.469,3.672C66.216,74.943,68.972,74.021,68.054,69.801z"/>
												<path fill="#FFFFFF" d="M69.163,68.943c-0.915-4.221-6.241-13.771-8.263-17.812c-2.021-4.04-4.041-9.73-3.122-13.4              c0.17-0.668,0.174-3.396,0.728-3.758c4.283-2.8,3.979-0.096,5.696-1.35c0.886-0.646,1.595-1.429,1.904-2.501              c1.103-3.855-1.531-10.571-4.468-13.509c-0.956-0.958-2.427-1.559-4.086-1.876c-0.637-0.875-1.665-1.712-3.123-2.485              c-2.745-1.458-6.148-2.041-9.301-1.469c0.504,0.046,1.658,1.089,2.123,1.157c-0.703,0.477-2.572,0.416-2.561,1.475              c2.503-0.25,5.247,0.145,7.554,1.17c-1.834,0.208-3.542,0.661-4.741,1.294c-3.491,1.834-4.408,5.506-3.491,10.65              c0.92,5.142,4.961,23.868,6.242,30.112c1.287,6.239-2.751,10.277-5.321,11.381l2.754,0.185l-0.917,2.021              c3.302,0.364,6.974-0.733,6.974-0.733c-0.732,2.021-5.691,2.754-5.691,2.754s2.386,0.733,6.242-0.736              c3.859-1.467,6.248-2.385,6.248-2.385l1.833,4.772l3.491-3.489l1.471,3.673C67.331,74.084,70.083,73.165,69.163,68.943z              "/>
												<path fill="#2D4F8E" d="M48.055,26.788c0-1.065,0.861-1.929,1.93-1.929c1.064,0,1.927,0.862,1.927,1.929              c0,1.066-0.863,1.928-1.927,1.928C48.917,28.716,48.055,27.854,48.055,26.788z"/>
												<path fill="#FFFFFF" d="M50.34,26.144c0-0.277,0.225-0.5,0.499-0.5c0.277,0,0.501,0.224,0.501,0.5              s-0.224,0.501-0.501,0.501C50.565,26.646,50.34,26.422,50.34,26.144z"/>
												<path fill="#2D4F8E" d="M61.217,25.644c0-0.913,0.744-1.655,1.656-1.655c0.917,0,1.657,0.742,1.657,1.655              c0,0.917-0.741,1.659-1.657,1.659C61.961,27.303,61.217,26.561,61.217,25.644z"/>
												<path fill="#FFFFFF" d="M63.181,25.093c0-0.235,0.193-0.429,0.427-0.429c0.243,0,0.429,0.193,0.429,0.429              c0,0.239-0.187,0.429-0.429,0.429C63.374,25.521,63.181,25.331,63.181,25.093z"/>
												
													<linearGradient id="SVGID_5_" gradientUnits="userSpaceOnUse" x1="1354.1709" y1="2661.8428" x2="1358.5332" y2="2661.8428" gradientTransform="matrix(1 0 0 1 -1308 -2640)">
													<stop offset="0.0056" style="stop-color:#6176B9"/>
													<stop offset="0.691" style="stop-color:#394A9F"/>
												</linearGradient>
												<path fill="url(#SVGID_5_)" d="M50.533,21.2c0,0-1.454-0.657-2.867,0.23c-1.41,0.887-1.358,1.794-1.358,1.794              s-0.75-1.672,1.249-2.491C49.558,19.915,50.533,21.2,50.533,21.2z"/>
												
													<linearGradient id="SVGID_6_" gradientUnits="userSpaceOnUse" x1="1367.8945" y1="2660.5137" x2="1371.8701" y2="2660.5137" gradientTransform="matrix(1 0 0 1 -1308 -2640)">
													<stop offset="0.0056" style="stop-color:#6176B9"/>
													<stop offset="0.691" style="stop-color:#394A9F"/>
												</linearGradient>
												<path fill="url(#SVGID_6_)" d="M63.87,21.067c0,0-1.043-0.597-1.855-0.587c-1.664,0.021-2.12,0.758-2.12,0.758              s0.279-1.754,2.411-1.403C63.461,20.028,63.87,21.067,63.87,21.067z"/>
											</g>
										</g>
									</g>
								</g>
							</g>
						</g>
					</g>
				</g>
			</g>
		</g>
		<path fill="#FDD20A" d="M55.887,34.225c0.193-1.166,3.208-3.374,5.342-3.508c2.139-0.134,2.806-0.104,4.588-0.531    c1.787-0.428,6.383-1.572,7.656-2.16c1.275-0.589,6.672,0.292,2.868,2.413c-1.647,0.921-6.083,2.612-9.253,3.56    c-3.167,0.946-5.087-0.906-6.14,0.651c-0.838,1.234-0.171,2.933,3.614,3.285c5.11,0.476,10.01-2.303,10.55-0.828    c0.542,1.476-4.393,3.312-7.398,3.373c-3,0.057-9.051-1.981-9.957-2.615C56.846,37.232,55.635,35.761,55.887,34.225z"/>
	</g>
	<g>
		<path fill="#65BC46" d="M58.199,50.161c0,0-7.179-3.829-7.297-2.276c-0.121,1.557,0,7.898,0.837,8.377    c0.838,0.479,6.821-3.109,6.821-3.109L58.199,50.161z"/>
		<path fill="#65BC46" d="M60.951,49.921c0,0,4.906-3.712,5.985-3.472c1.075,0.244,1.315,7.898,0.356,8.262    c-0.957,0.355-6.572-1.943-6.572-1.943L60.951,49.921z"/>
		<path fill="#43A244" d="M56.462,50.566c0,2.511-0.361,3.59,0.718,3.828c1.075,0.237,3.108,0,3.828-0.479    c0.717-0.478,0.118-3.708-0.12-4.31C60.647,49.01,56.462,49.49,56.462,50.566z"/>
		<path fill="#65BC46" d="M56.918,50.009c0,2.511-0.359,3.589,0.718,3.828c1.073,0.241,3.108,0,3.828-0.478    c0.717-0.479,0.119-3.705-0.122-4.312C61.103,48.453,56.918,48.934,56.918,50.009z"/>
	</g>
</g>
</svg>