<?xml version="1.0" encoding="UTF-8" standalone="no"?>
<!-- Created with Inkscape (http://www.inkscape.org/) -->

<svg
   xmlns:dc="http://purl.org/dc/elements/1.1/"
   xmlns:cc="http://creativecommons.org/ns#"
   xmlns:rdf="http://www.w3.org/1999/02/22-rdf-syntax-ns#"
   xmlns:svg="http://www.w3.org/2000/svg"
   xmlns="http://www.w3.org/2000/svg"
   version="1.0"
   width="742.85004"
   height="243.6125"
   id="svg1">
  <metadata
     id="metadata8">
    <rdf:RDF>
      <cc:Work
         rdf:about="">
        <dc:format>image/svg+xml</dc:format>
        <dc:type
           rdf:resource="http://purl.org/dc/dcmitype/StillImage" />
        <dc:title></dc:title>
      </cc:Work>
    </rdf:RDF>
  </metadata>
  <defs
     id="defs3" />
  <g
     id="layer1" />
  <path
     d="M 5,123.6125 80,4.8625031 c 0,0 68.75,0 68.75,0 0,0 -68.75,118.7499969 -68.75,118.7499969 0,0 68.75,116.25 68.75,116.25 l -75,0 L 5,123.6125 z m 87.5,0 68.75,-118.7499969 c 0,0 75,0 75,0 0,0 -68.75,118.7499969 -68.75,118.7499969 l 68.75,116.25 -75,0 -68.75,-116.25 z m 87.5,0 68.75,-118.7499969 c 0,0 75,0 75,0 0,0 -67.5,118.7499969 -67.5,118.7499969 l 67.5,116.25 -75,0 L 180,123.6125 z M 423.75,4.8625031 c 0,0 68.75,0 68.75,0 L 405,239.8625 l -68.75,0 87.5,-234.9999969 z m 150,118.7499969 c 0,0 -68.75,-118.7499969 -68.75,-118.7499969 0,0 75,0 75,0 0,0 68.75,118.7499969 68.75,118.7499969 l -68.75,116.25 -75,0 c 0,0 68.75,-116.25 68.75,-116.25 z m 18.75,116.25 c 0,0 68.75,-116.25 68.75,-116.25 0,0 -68.75,-118.7499969 -68.75,-118.7499969 l 75,0 68.75,118.7499969 -68.75,116.25 c 0,0 -75,0 -75,0 z"
     id="path1103" />
</svg>
