<?xml version="1.0" encoding="UTF-8" standalone="no"?>
<!-- Created with Inkscape (http://www.inkscape.org/) -->
<svg xmlns:svg="http://www.w3.org/2000/svg" xmlns="http://www.w3.org/2000/svg" version="1.0" width="294" height="102" id="svg2">
  <defs id="defs4"/>
  <g transform="translate(-258.09375,-537.95704)" id="layer1">
    <g id="g2400">
      <text x="351.53308" y="502.58667" id="text2396" xml:space="preserve" style="font-size:40px;font-style:normal;font-weight:normal;fill:#000000;fill-opacity:1;stroke:none;stroke-width:1px;stroke-linecap:butt;stroke-linejoin:miter;stroke-opacity:1;font-family:Bitstream Vera Sans"><tspan x="351.53308" y="502.58667" id="tspan2398"/></text>
    </g>
    <text x="355.82623" y="484.65646" id="text2404" xml:space="preserve" style="font-size:40px;font-style:normal;font-weight:normal;fill:#000000;fill-opacity:1;stroke:none;stroke-width:1px;stroke-linecap:butt;stroke-linejoin:miter;stroke-opacity:1;font-family:Bitstream Vera Sans"><tspan x="355.82623" y="484.65646" id="tspan2406"/></text>
    <g transform="translate(2.263965,1.8945)" id="g3225">
      <g id="g3221">
        <path d="M 294.21875,537.95704 C 272.16279,537.95704 263.65625,559.49591 263.65625,562.17579 C 263.65625,562.17579 263.65625,585.17579 263.65625,585.17579 L 258.09375,585.17579 L 258.09375,609.42579 C 258.09375,609.42579 269.56082,595.69571 293.1875,595.51954 C 308.00505,595.39433 326.03125,585.42579 326.03125,585.42579 C 326.03125,585.42579 326.03125,562.42578 326.03125,562.42579 C 326.03125,560.0095 318.13716,537.95705 294.21875,537.95704 z M 307.84375,545.39454 C 307.84375,545.39454 294.29098,541.69085 282.96875,548.17579 C 274.68884,552.91821 269.09375,563.33203 269.09375,563.33204 C 269.09375,563.33204 273.26308,550.04122 281.81885,545.89835 C 290.3552,541.83156 299.16046,542.14016 307.84375,545.39454 z M 295.21875,552.70704 C 308.66315,552.70704 311.75,565.1035 311.75,567.36329 C 311.75,567.36329 311.75,585.3008 311.75,585.30079 L 277.90625,585.30079 C 277.90625,585.30079 277.65625,566.36328 277.65625,566.36329 C 277.65625,564.32737 281.84362,552.70703 295.21875,552.70704 z" id="path2408" style="fill:#0093dd;fill-opacity:1;fill-rule:evenodd;stroke:none;stroke-width:1px;stroke-linecap:butt;stroke-linejoin:miter;stroke-opacity:1"/>
        <path d="M 331.69162,591.88233 C 331.69162,591.88233 331.69162,636.16804 331.69162,636.16804 L 268.65591,636.16804 C 276.91838,631.40765 285.90408,632.59662 295.08448,632.59662 C 295.08448,632.59662 306.47784,632.6857 322.58448,619.5609 C 322.58448,619.5609 306.62186,626.75108 283.29877,622.0609 C 283.29877,622.0609 316.93356,623.40538 330.97734,600.53669 C 330.97734,600.53669 317.72029,609.65019 293.56662,609.65019 C 293.56662,609.65019 309.15652,611.63057 331.69162,591.88233 z" id="path3186" style="fill:#0093dd;fill-opacity:1;fill-rule:evenodd;stroke:none;stroke-width:1px;stroke-linecap:butt;stroke-linejoin:miter;stroke-opacity:1"/>
      </g>
      <path d="M 372.99883,608.38885 L 381.08005,608.38885 L 381.08005,632.37997 C 381.08005,632.37997 371.48008,636.16804 364.5388,636.16804 C 358.80907,636.16804 340.54768,632.68011 340.54768,610.91423 C 340.54768,591.93238 356.39691,584.65026 364.41253,584.65026 C 372.80566,584.65026 379.31228,588.1858 379.31228,588.1858 L 379.31228,593.99417 C 379.31228,593.99417 372.30474,589.70103 364.66507,589.70103 C 356.58839,589.70103 349.51278,594.12315 349.51278,611.41931 C 349.51278,624.2237 356.78429,632.37997 364.41253,632.37997 C 371.37446,632.37997 373.25137,629.85459 373.25137,629.85459 L 372.99883,608.38885 z" id="path3208" style="fill:#0093dd;fill-opacity:1;fill-rule:evenodd;stroke:none;stroke-width:1px;stroke-linecap:butt;stroke-linejoin:miter;stroke-opacity:1"/>
      <path d="M 389.464,635.98947 L 397.67857,635.98947 L 397.67857,608.48947 C 397.67857,608.48947 399.17566,602.41804 405.71429,602.41804 C 412.52077,602.41804 413.57143,607.06089 413.57143,607.06089 L 413.57143,636.16804 L 421.42857,636.16804 L 421.42857,605.45375 C 421.42857,605.45375 418.56081,597.08256 409.28572,597.08256 C 400.1369,597.08256 398.36267,601.54985 397.5,602.59661 C 397.5,602.59661 397.5,597.95375 397.5,597.95375 L 389.464,597.95375 L 389.464,635.98947 z" id="path3210" style="fill:#0093dd;fill-opacity:1;fill-rule:evenodd;stroke:none;stroke-width:1px;stroke-linecap:butt;stroke-linejoin:miter;stroke-opacity:1"/>
      <path d="M 462.46971,597.26113 L 454.25514,597.26113 L 454.25514,624.76113 C 454.25514,624.76113 452.75805,630.83256 446.21942,630.83256 C 439.41294,630.83256 438.36228,626.18971 438.36228,626.18971 L 438.36228,597.08256 L 430.50514,597.08256 L 430.50514,627.79685 C 430.50514,627.79685 433.3729,636.16804 442.64799,636.16804 C 451.79681,636.16804 453.57104,631.70075 454.43371,630.65399 C 454.43371,630.65399 454.43371,635.29685 454.43371,635.29685 L 462.46971,635.29685 L 462.46971,597.26113 z" id="path3212" style="fill:#0093dd;fill-opacity:1;fill-rule:evenodd;stroke:none;stroke-width:1px;stroke-linecap:butt;stroke-linejoin:miter;stroke-opacity:1"/>
      <path d="M 471.59375,587.41804 L 471.59375,636.16804 L 480.53125,636.16804 L 480.53125,615.63679 C 480.53126,615.63678 492.3125,615.63679 492.3125,615.63679 C 494.4029,615.63678 503.75,610.93776 503.75,601.69929 C 503.75,591.56796 494.76237,587.41804 492.3125,587.41804 C 492.31249,587.41803 471.59375,587.41804 471.59375,587.41804 z M 480.53125,591.16804 C 480.53125,591.16804 487.78126,591.16804 487.78125,591.16804 C 489.6679,591.16804 495.90626,593.41778 495.90625,601.69929 C 495.90625,609.59578 489.04761,611.69929 487.21875,611.69929 C 487.21875,611.69929 480.53126,611.69929 480.53125,611.69929 L 480.53125,591.16804 z" id="path3214" style="fill:#0093dd;fill-opacity:1;fill-rule:evenodd;stroke:none;stroke-width:1px;stroke-linecap:butt;stroke-linejoin:miter;stroke-opacity:1"/>
      <path d="M 539.4846,608.38885 L 547.56582,608.38885 L 547.56582,632.37997 C 547.56582,632.37997 537.96585,636.16804 531.02457,636.16804 C 525.29484,636.16804 507.03345,632.68011 507.03345,610.91423 C 507.03345,591.93238 522.88268,584.65026 530.8983,584.65026 C 539.29143,584.65026 545.79805,588.1858 545.79805,588.1858 L 545.79805,593.99417 C 545.79805,593.99417 538.79051,589.70103 531.15084,589.70103 C 523.07416,589.70103 515.99855,594.12315 515.99855,611.41931 C 515.99855,624.2237 523.27006,632.37997 530.8983,632.37997 C 537.86023,632.37997 539.73714,629.85459 539.73714,629.85459 L 539.4846,608.38885 z" id="path3219" style="fill:#0093dd;fill-opacity:1;fill-rule:evenodd;stroke:none;stroke-width:1px;stroke-linecap:butt;stroke-linejoin:miter;stroke-opacity:1"/>
    </g>
  </g>
</svg>